<svg width="24" height="24" viewBox="0 0 24 24" fill="none" xmlns="http://www.w3.org/2000/svg">
<path d="M14.975 3.019L15.935 1.287C15.9473 1.2648 15.9551 1.24041 15.9579 1.21521C15.9608 1.19 15.9586 1.16449 15.9516 1.14011C15.9446 1.11574 15.9329 1.09298 15.9171 1.07314C15.9013 1.05331 15.8817 1.03678 15.8595 1.0245C15.8373 1.01222 15.8129 1.00443 15.7877 1.00158C15.7625 0.99873 15.737 1.00087 15.7126 1.00788C15.6882 1.01489 15.6655 1.02664 15.6456 1.04244C15.6258 1.05825 15.6093 1.0778 15.597 1.1L14.627 2.85C13.799 2.48695 12.9046 2.2995 12.0005 2.2995C11.0964 2.2995 10.202 2.48695 9.374 2.85L8.404 1.1C8.37921 1.05491 8.33751 1.02152 8.2881 1.00718C8.23868 0.992829 8.18559 0.9987 8.1405 1.0235C8.09542 1.0483 8.06203 1.08999 8.04768 1.1394C8.03333 1.18882 8.03921 1.24191 8.064 1.287L9.024 3.019C8.11059 3.46949 7.33887 4.1628 6.79345 5.0229C6.24804 5.88301 5.94999 6.8767 5.932 7.895H18.069C18.0508 6.87649 17.7525 5.88266 17.2067 5.02253C16.6609 4.1624 15.8888 3.46921 14.975 3.019ZM9.2 5.674C9.09969 5.674 9.00162 5.64424 8.91823 5.58848C8.83483 5.53273 8.76985 5.45349 8.7315 5.36079C8.69316 5.26809 8.68318 5.16609 8.70282 5.06772C8.72246 4.96934 8.77085 4.87901 8.84186 4.80814C8.91286 4.73728 9.00329 4.68907 9.10171 4.66962C9.20012 4.65017 9.30209 4.66035 9.39472 4.69888C9.48734 4.73741 9.56646 4.80254 9.62205 4.88605C9.67763 4.96956 9.7072 5.06768 9.707 5.168C9.70674 5.30229 9.65321 5.43099 9.55815 5.52585C9.4631 5.62072 9.3343 5.674 9.2 5.674ZM14.802 5.674C14.7017 5.674 14.6036 5.64424 14.5202 5.58848C14.4368 5.53273 14.3718 5.45349 14.3335 5.36079C14.2952 5.26809 14.2852 5.16609 14.3048 5.06772C14.3245 4.96934 14.3729 4.87901 14.4439 4.80814C14.5149 4.73728 14.6053 4.68907 14.7037 4.66962C14.8021 4.65017 14.9041 4.66035 14.9967 4.69888C15.0893 4.73741 15.1685 4.80254 15.224 4.88605C15.2796 4.96956 15.3092 5.06768 15.309 5.168C15.3087 5.30229 15.2552 5.43099 15.1602 5.52585C15.0651 5.62072 14.9363 5.674 14.802 5.674ZM5.93 17.171C5.92974 17.3641 5.96759 17.5553 6.04138 17.7337C6.11518 17.9121 6.22346 18.0742 6.36003 18.2107C6.4966 18.3472 6.65876 18.4553 6.83722 18.529C7.01568 18.6027 7.20693 18.6404 7.4 18.64H8.373V21.64C8.373 22.0008 8.51634 22.3469 8.77149 22.602C9.02663 22.8572 9.37268 23.0005 9.7335 23.0005C10.0943 23.0005 10.4404 22.8572 10.6955 22.602C10.9507 22.3469 11.094 22.0008 11.094 21.64V18.64H12.908V21.64C12.908 22.0007 13.0513 22.3466 13.3063 22.6017C13.5614 22.8567 13.9073 23 14.268 23C14.6287 23 14.9746 22.8567 15.2297 22.6017C15.4847 22.3466 15.628 22.0007 15.628 21.64V18.64H16.602C16.7948 18.6401 16.9858 18.6022 17.1639 18.5285C17.3421 18.4548 17.504 18.3467 17.6403 18.2103C17.7767 18.074 17.8848 17.9121 17.9585 17.7339C18.0323 17.5558 18.0701 17.3648 18.07 17.172V8.375H5.93V17.171ZM4.063 8.141C3.7023 8.14153 3.35653 8.28512 3.10157 8.54027C2.84661 8.79542 2.70327 9.14129 2.703 9.502V15.171C2.703 15.3496 2.73818 15.5264 2.80653 15.6914C2.87487 15.8564 2.97505 16.0064 3.10134 16.1327C3.22763 16.259 3.37755 16.3591 3.54255 16.4275C3.70756 16.4958 3.88441 16.531 4.063 16.531C4.2416 16.531 4.41845 16.4958 4.58345 16.4275C4.74846 16.3591 4.89838 16.259 5.02467 16.1327C5.15096 16.0064 5.25113 15.8564 5.31948 15.6914C5.38783 15.5264 5.423 15.3496 5.423 15.171V9.502C5.42247 9.14147 5.27902 8.79585 5.02408 8.54092C4.76915 8.28598 4.42354 8.14253 4.063 8.142V8.141ZM19.935 8.141C19.5743 8.14153 19.2285 8.28512 18.9736 8.54027C18.7186 8.79542 18.5753 9.14129 18.575 9.502V15.171C18.575 15.3496 18.6102 15.5264 18.6785 15.6914C18.7469 15.8564 18.8471 16.0064 18.9733 16.1327C19.0996 16.259 19.2496 16.3591 19.4146 16.4275C19.5796 16.4958 19.7564 16.531 19.935 16.531C20.1136 16.531 20.2905 16.4958 20.4555 16.4275C20.6205 16.3591 20.7704 16.259 20.8967 16.1327C21.023 16.0064 21.1231 15.8564 21.1915 15.6914C21.2598 15.5264 21.295 15.3496 21.295 15.171V9.502C21.2945 9.14147 21.151 8.79585 20.8961 8.54092C20.6412 8.28598 20.2955 8.14253 19.935 8.142V8.141Z" fill="white"/>
</svg>
