<svg width="29" height="28" viewBox="0 0 29 28" fill="none" xmlns="http://www.w3.org/2000/svg">
<path opacity="0.4" d="M20 10.5C20 15.015 16.08 18.6666 11.25 18.6666L10.165 19.9733L9.52334 20.7433C8.97501 21.3967 7.925 21.2566 7.56333 20.475L6 17.0333C3.87667 15.54 2.5 13.1716 2.5 10.5C2.5 5.98498 6.42 2.33331 11.25 2.33331C14.7733 2.33331 17.8183 4.28165 19.1833 7.08165C19.7083 8.11999 20 9.27498 20 10.5Z" fill="white"/>
<path d="M25.8333 15.0033C25.8333 17.675 24.4567 20.0433 22.3333 21.5367L20.77 24.9783C20.4083 25.76 19.3583 25.9117 18.81 25.2467L17.0833 23.17C14.26 23.17 11.74 21.9216 10.165 19.9733L11.25 18.6667C16.08 18.6667 20 15.015 20 10.5C20 9.27499 19.7083 8.12 19.1833 7.08167C22.9983 7.95667 25.8333 11.1766 25.8333 15.0033Z" fill="white"/>
<path d="M14.1667 11.375H8.33334C7.85501 11.375 7.45834 10.9783 7.45834 10.5C7.45834 10.0217 7.85501 9.625 8.33334 9.625H14.1667C14.645 9.625 15.0417 10.0217 15.0417 10.5C15.0417 10.9783 14.645 11.375 14.1667 11.375Z" fill="white"/>
</svg>
