<svg width="28" height="28" viewBox="0 0 28 28" fill="none" xmlns="http://www.w3.org/2000/svg">
<path opacity="0.4" d="M26.4443 11.4791L25.1507 16.9968C24.0419 21.7621 21.8506 23.6894 17.7322 23.2934C17.0721 23.2406 16.3593 23.1217 15.5937 22.9369L13.3761 22.4089C7.87154 21.1021 6.16871 18.3828 7.46234 12.8651L8.75596 7.33421C9.01997 6.21219 9.33678 5.23537 9.73278 4.43015C11.2772 1.23568 13.9041 0.377664 18.313 1.42049L20.5174 1.9353C26.0483 3.22892 27.738 5.96138 26.4443 11.4791Z" fill="white"/>
<path d="M17.7321 23.2934C16.9137 23.8478 15.8841 24.3098 14.6301 24.719L12.5444 25.4054C7.30391 27.0951 4.54504 25.6826 2.84221 20.4421L1.15257 15.228C-0.537065 9.9875 0.862165 7.21544 6.10268 5.5258L8.18832 4.83938C8.72954 4.66778 9.24435 4.52258 9.73276 4.43018C9.33675 5.23539 9.01994 6.21221 8.75594 7.33424L7.46231 12.8652C6.16868 18.3829 7.87152 21.1021 13.376 22.409L15.5937 22.937C16.3593 23.1218 17.0721 23.2406 17.7321 23.2934Z" fill="white"/>
<path d="M20.9398 11.5715C20.8606 11.5715 20.7814 11.5583 20.689 11.5451L14.2869 9.92144C13.7589 9.78944 13.442 9.24823 13.5741 8.72022C13.7061 8.1922 14.2473 7.8754 14.7753 8.0074L21.1774 9.63104C21.7054 9.76304 22.0222 10.3042 21.8902 10.8323C21.7846 11.2679 21.3754 11.5715 20.9398 11.5715Z" fill="white"/>
<path d="M17.0721 16.0332C16.9929 16.0332 16.9137 16.02 16.8213 16.0068L12.98 15.03C12.452 14.898 12.1352 14.3567 12.2672 13.8287C12.3992 13.3007 12.9404 12.9839 13.4685 13.1159L17.3097 14.0927C17.8377 14.2247 18.1546 14.766 18.0226 15.294C17.9169 15.7428 17.5209 16.0332 17.0721 16.0332Z" fill="white"/>
</svg>
