<svg width="29" height="28" viewBox="0 0 29 28" fill="none" xmlns="http://www.w3.org/2000/svg">
<path d="M25.2717 8.14334C24.28 7.04667 22.6233 6.49834 20.22 6.49834H19.94V6.45167C19.94 4.49167 19.94 2.065 15.5533 2.065H13.78C9.39334 2.065 9.39334 4.50334 9.39334 6.45167V6.51H9.11334C6.69834 6.51 5.05334 7.05834 4.06167 8.155C2.90667 9.43834 2.94167 11.165 3.05834 12.3433L3.07001 12.425L3.18667 13.65C3.19834 13.6617 3.22167 13.685 3.24501 13.6967C3.63001 13.9533 4.02667 14.21 4.44667 14.4433C4.61001 14.5483 4.78501 14.6417 4.96001 14.735C6.95501 15.8317 9.14834 16.5667 11.3767 16.9283C11.4817 18.025 11.96 19.3083 14.515 19.3083C17.07 19.3083 17.5717 18.0367 17.6533 16.905C20.0333 16.52 22.3317 15.6917 24.4083 14.4783C24.4783 14.4433 24.525 14.4083 24.5833 14.3733C25.12 14.07 25.6217 13.7433 26.1117 13.3817C26.135 13.37 26.1583 13.3467 26.17 13.3233L26.2167 12.9033L26.275 12.355C26.2867 12.285 26.2867 12.2267 26.2983 12.145C26.3917 10.9667 26.3683 9.35667 25.2717 8.14334ZM15.9383 16.135C15.9383 17.3717 15.9383 17.5583 14.5033 17.5583C13.0683 17.5583 13.0683 17.3367 13.0683 16.1467V14.6767H15.9383V16.135ZM11.0617 6.49834V6.45167C11.0617 4.46834 11.0617 3.73334 13.78 3.73334H15.5533C18.2717 3.73334 18.2717 4.48 18.2717 6.45167V6.51H11.0617V6.49834Z" fill="white"/>
<path opacity="0.4" d="M24.5833 14.35C24.525 14.385 24.4667 14.42 24.4083 14.455C22.3317 15.6683 20.0333 16.485 17.6533 16.8817C17.56 18.0017 17.07 19.285 14.515 19.285C11.96 19.285 11.47 18.0133 11.3767 16.905C9.14834 16.555 6.95501 15.82 4.96001 14.7117C4.78501 14.6183 4.61001 14.525 4.44667 14.42C4.02667 14.1867 3.63001 13.93 3.24501 13.6733C3.22167 13.6617 3.19834 13.6383 3.18667 13.6267L3.89834 21.2217C4.14334 23.5433 5.10001 25.935 10.2333 25.935H19.1233C24.2567 25.935 25.2133 23.5433 25.4583 21.21L26.1933 13.3C26.1817 13.3233 26.1583 13.3467 26.135 13.3583C25.6333 13.72 25.12 14.0583 24.5833 14.35Z" fill="white"/>
</svg>
