<svg width="29" height="28" viewBox="0 0 29 28" fill="none" xmlns="http://www.w3.org/2000/svg">
<path d="M12.1517 17.5117L10.95 16.31L12.105 15.155C12.4433 14.8167 12.4433 14.2567 12.105 13.9184C11.7667 13.58 11.2067 13.58 10.8683 13.9184L9.71335 15.0734L8.59335 13.9534C8.25502 13.615 7.69502 13.615 7.35668 13.9534C7.01835 14.2917 7.01835 14.8517 7.35668 15.19L8.47668 16.31L7.32168 17.465C6.98335 17.8034 6.98335 18.3634 7.32168 18.7017C7.49668 18.8767 7.71835 18.9584 7.94002 18.9584C8.16168 18.9584 8.38335 18.8767 8.55835 18.7017L9.71335 17.5467L10.915 18.7484C11.09 18.9234 11.3117 19.005 11.5333 19.005C11.755 19.005 11.9767 18.9234 12.1517 18.7484C12.49 18.41 12.49 17.85 12.1517 17.5117Z" fill="white"/>
<path d="M16.1301 17.5C15.4884 17.5 14.9517 16.975 14.9517 16.3334C14.9517 15.6917 15.4651 15.1667 16.1067 15.1667H16.1301C16.7717 15.1667 17.2967 15.6917 17.2967 16.3334C17.2967 16.975 16.7834 17.5 16.1301 17.5Z" fill="white"/>
<path d="M20.7267 17.5C20.0851 17.5 19.5484 16.975 19.5484 16.3334C19.5484 15.6917 20.0617 15.1667 20.7034 15.1667H20.7267C21.3684 15.1667 21.8934 15.6917 21.8934 16.3334C21.8934 16.975 21.3801 17.5 20.7267 17.5Z" fill="white"/>
<path d="M18.4167 19.7983C17.7751 19.7983 17.2501 19.285 17.2501 18.6433V18.62C17.2501 17.9783 17.7751 17.4533 18.4167 17.4533C19.0584 17.4533 19.5834 17.9783 19.5834 18.62C19.5834 19.2616 19.0701 19.7983 18.4167 19.7983Z" fill="white"/>
<path d="M18.4167 15.2017C17.7751 15.2017 17.2501 14.6884 17.2501 14.0467V14.0234C17.2501 13.3817 17.7751 12.8567 18.4167 12.8567C19.0584 12.8567 19.5834 13.3817 19.5834 14.0234C19.5834 14.665 19.0701 15.2017 18.4167 15.2017Z" fill="white"/>
<path opacity="0.4" d="M26 12.915V19.425C26 22.8667 23.2 25.6667 19.7584 25.6667H8.90835C5.46669 25.6667 2.66669 22.8667 2.66669 19.425V12.915C2.66669 9.47334 5.46669 6.67334 8.90835 6.67334H19.7584C23.2 6.67334 26 9.47334 26 12.915Z" fill="white"/>
<path d="M16.2467 3.16165L16.235 4.25831C16.2234 5.28498 15.3717 6.13665 14.3334 6.13665C14.1584 6.13665 14.0534 6.25331 14.0534 6.40498C14.0534 6.55665 14.17 6.67331 14.3217 6.67331H12.4434C12.4317 6.59165 12.42 6.49831 12.42 6.40498C12.42 5.35498 13.2717 4.50331 14.31 4.50331C14.485 4.50331 14.6017 4.38665 14.6017 4.23498L14.6134 3.13831C14.625 2.69498 14.9867 2.33331 15.43 2.33331H15.4417C15.8967 2.33331 16.2467 2.70665 16.2467 3.16165Z" fill="white"/>
</svg>
