<svg width="28" height="28" viewBox="0 0 28 28" fill="none" xmlns="http://www.w3.org/2000/svg">
<path opacity="0.4" d="M14 6.18333V24.885C13.8017 24.885 13.5917 24.85 13.4283 24.7567L13.3817 24.7333C11.1417 23.5083 7.23334 22.225 4.70168 21.8867L4.36334 21.84C3.24334 21.7 2.33334 20.65 2.33334 19.53V5.43666C2.33334 4.04833 3.46501 2.99833 4.85334 3.115C7.30334 3.31333 11.0133 4.55 13.09 5.845L13.3817 6.02C13.5567 6.125 13.7783 6.18333 14 6.18333Z" fill="white"/>
<path d="M25.6667 5.44835V19.53C25.6667 20.65 24.7567 21.7 23.6367 21.84L23.2517 21.8867C20.7083 22.225 16.7883 23.52 14.5483 24.7567C14.3967 24.85 14.21 24.885 14 24.885V6.18335C14.2217 6.18335 14.4433 6.12501 14.6183 6.02001L14.8167 5.89168C16.8933 4.58501 20.615 3.33668 23.065 3.12668H23.135C24.5233 3.01001 25.6667 4.04835 25.6667 5.44835Z" fill="white"/>
<path d="M9.04166 10.78H6.41666C5.93832 10.78 5.54166 10.3834 5.54166 9.90503C5.54166 9.4267 5.93832 9.03003 6.41666 9.03003H9.04166C9.51999 9.03003 9.91666 9.4267 9.91666 9.90503C9.91666 10.3834 9.51999 10.78 9.04166 10.78Z" fill="white"/>
<path d="M9.91666 14.28H6.41666C5.93832 14.28 5.54166 13.8834 5.54166 13.405C5.54166 12.9267 5.93832 12.53 6.41666 12.53H9.91666C10.395 12.53 10.7917 12.9267 10.7917 13.405C10.7917 13.8834 10.395 14.28 9.91666 14.28Z" fill="white"/>
</svg>
