<svg width="29" height="28" viewBox="0 0 29 28" fill="none" xmlns="http://www.w3.org/2000/svg">
<path opacity="0.4" d="M21.7767 14.98V20.7316C21.7767 22.2133 20.6217 23.8 19.2333 24.2666L15.5117 25.5033C14.8583 25.725 13.7967 25.725 13.155 25.5033L9.43335 24.2666C8.03335 23.8 6.89001 22.2133 6.89001 20.7316L6.90168 14.98L12.0583 18.34C13.3183 19.1683 15.395 19.1683 16.655 18.34L21.7767 14.98Z" fill="white"/>
<path d="M23.6434 7.5367L16.6551 2.95169C15.3951 2.12336 13.3184 2.12336 12.0584 2.95169L5.03506 7.5367C2.7834 8.99503 2.7834 12.2967 5.03506 13.7667L6.90173 14.98L12.0584 18.34C13.3184 19.1684 15.3951 19.1684 16.6551 18.34L21.7767 14.98L23.3751 13.93V17.5C23.3751 17.9784 23.7717 18.375 24.2501 18.375C24.7284 18.375 25.1251 17.9784 25.1251 17.5V11.76C25.5917 10.255 25.1134 8.50503 23.6434 7.5367Z" fill="white"/>
</svg>
