<svg width="32" height="33" viewBox="0 0 32 33" fill="none" xmlns="http://www.w3.org/2000/svg">
<path opacity="0.3" fill-rule="evenodd" clip-rule="evenodd" d="M12.002 3.27979C10.1752 3.64965 8.8 5.26431 8.8 7.20017V25.6002C8.8 27.8093 10.5909 29.6002 12.8 29.6002H19.2C21.4091 29.6002 23.2 27.8093 23.2 25.6002V7.20017C23.2 5.26431 21.8248 3.64965 19.9981 3.27979C19.9566 4.12645 19.257 4.80017 18.4 4.80017H13.6C12.743 4.80017 12.0434 4.12645 12.002 3.27979Z" fill="#6A5AE0"/>
<path fill-rule="evenodd" clip-rule="evenodd" d="M12.8 0C8.82356 0 5.60001 3.22355 5.60001 7.2V25.6C5.60001 29.5764 8.82356 32.8 12.8 32.8H19.2C23.1765 32.8 26.4 29.5764 26.4 25.6V7.2C26.4 3.22355 23.1765 0 19.2 0H12.8ZM12.002 3.27962C10.1752 3.64948 8.80001 5.26415 8.80001 7.2V25.6C8.80001 27.8091 10.5909 29.6 12.8 29.6H19.2C21.4091 29.6 23.2 27.8091 23.2 25.6V7.2C23.2 5.26415 21.8248 3.64948 19.9981 3.27962C19.9566 4.12629 19.257 4.8 18.4 4.8H13.6C12.743 4.8 12.0434 4.12629 12.002 3.27962Z" fill="#6A5AE0"/>
<path d="M4.37968 1.19443C4.37968 0.97352 4.2006 0.794434 3.97968 0.794434C3.75877 0.794434 3.57968 0.97352 3.57968 1.19443V2.09424H2.68008C2.45916 2.09424 2.28008 2.27332 2.28008 2.49424C2.28008 2.71515 2.45916 2.89424 2.68008 2.89424H3.57968V3.79385C3.57968 4.01476 3.75877 4.19385 3.97968 4.19385C4.2006 4.19385 4.37968 4.01476 4.37968 3.79385V2.89424H5.27949C5.5004 2.89424 5.67949 2.71515 5.67949 2.49424C5.67949 2.27332 5.5004 2.09424 5.27949 2.09424H4.37968V1.19443Z" fill="#6A5AE0"/>
<path d="M2.29135 4.5665C2.29135 4.34559 2.11227 4.1665 1.89135 4.1665C1.67044 4.1665 1.49135 4.34559 1.49135 4.5665V5.0083H1.04946C0.828546 5.0083 0.64946 5.18739 0.64946 5.4083C0.64946 5.62921 0.828546 5.8083 1.04946 5.8083H1.49135V6.2502C1.49135 6.47111 1.67044 6.6502 1.89135 6.6502C2.11227 6.6502 2.29135 6.47111 2.29135 6.2502V5.8083H2.73315C2.95407 5.8083 3.13315 5.62921 3.13315 5.4083C3.13315 5.18739 2.95407 5.0083 2.73315 5.0083H2.29135V4.5665Z" fill="#6A5AE0"/>
<circle opacity="0.3" cx="27.715" cy="29.5998" r="0.807813" fill="#6A5AE0"/>
</svg>
