<svg width="32" height="32" viewBox="0 0 32 32" fill="none" xmlns="http://www.w3.org/2000/svg">
<path d="M18.392 1.34749C18.1275 1.34792 17.874 1.45311 17.6869 1.64003L4.02208 15.2911C3.63123 15.6816 3.63107 16.315 4.02173 16.7057L7.13987 19.8238C7.52989 20.2139 8.16205 20.2144 8.55278 19.8252L11.8198 16.5702L25.3455 3.04451C25.976 2.41399 25.5284 1.33596 24.6368 1.33741L18.392 1.34749Z" fill="#6A5AE0"/>
<path opacity="0.3" d="M25.3749 16.5769L19.8886 22.053C19.498 22.4429 19.4971 23.0755 19.8866 23.4665L25.357 28.9573C25.9852 29.5878 25.5386 30.6631 24.6486 30.6631H18.2377C18.1826 30.6631 18.127 30.6723 18.0725 30.6641C17.9447 30.6446 17.8592 30.5286 17.7737 30.4431L14.6208 27.2902L10.7965 23.4535C10.4061 23.0619 10.4077 22.4279 10.7999 22.0382L14.6208 18.242L17.891 14.9718C18.0083 14.8691 18.2283 14.8691 18.3896 14.8691H24.6684C25.5598 14.8691 26.0057 15.9472 25.3749 16.5769Z" fill="#6A5AE0"/>
</svg>
