<svg width="32" height="32" viewBox="0 0 32 32" fill="none" xmlns="http://www.w3.org/2000/svg">
<path opacity="0.5" d="M29.5316 1.06689H27.0018C26.5221 1.06689 26.1333 1.45568 26.1333 1.93533C26.1333 2.41498 26.5221 2.80376 27.0018 2.80376H28.6631V4.46513C28.6631 4.94478 29.0519 5.33356 29.5316 5.33356C30.0112 5.33356 30.4 4.94478 30.4 4.46513V1.93533C30.4 1.45568 30.0112 1.06689 29.5316 1.06689V1.06689Z" fill="#6A5AE0"/>
<path opacity="0.5" d="M29.5316 17.0669C29.0519 17.0669 28.6631 17.4557 28.6631 17.9353V19.5967H27.0018C26.5221 19.5967 26.1333 19.9855 26.1333 20.4651C26.1333 20.9448 26.5221 21.3336 27.0018 21.3336H29.5316C30.0112 21.3336 30.4 20.9448 30.4 20.4651V17.9353C30.4 17.4557 30.0112 17.0669 29.5316 17.0669Z" fill="#6A5AE0"/>
<path opacity="0.5" d="M11.5351 5.33356C12.0147 5.33356 12.4035 4.94478 12.4035 4.46513V2.80376H14.0649C14.5445 2.80376 14.9333 2.41498 14.9333 1.93533C14.9333 1.45568 14.5445 1.06689 14.0649 1.06689H11.5351C11.0554 1.06689 10.6667 1.45568 10.6667 1.93533V4.46513C10.6667 4.94478 11.0554 5.33356 11.5351 5.33356Z" fill="#6A5AE0"/>
<path opacity="0.5" d="M15.504 14.3999L2.0342 27.8697C1.45527 28.4486 1.45527 29.3868 2.0342 29.9657C2.61312 30.5446 3.55133 30.5446 4.13025 29.9657L17.6 16.496L17.0313 14.9686L15.504 14.3999Z" fill="#6A5AE0"/>
<path d="M27.6323 13.0504L25.6489 9.97817C25.5122 9.76538 25.4709 9.50435 25.5365 9.25985L26.4764 5.75758C26.6014 5.29136 26.1747 4.86466 25.7085 4.98992L22.2067 5.93019C21.9624 5.99583 21.7011 5.95452 21.4886 5.81787L18.4161 3.83441C18.0095 3.57204 17.4714 3.84981 17.4502 4.33345L17.2903 7.9467C17.2789 8.20437 17.1577 8.44396 16.9569 8.60584L14.1006 10.9044C13.7219 11.2092 13.8193 11.8102 14.2748 11.9799L16.5334 12.8217C18.3154 13.4854 17.982 13.1531 18.645 14.9334L19.4868 17.1919C19.6565 17.6474 20.2576 17.7448 20.5624 17.3661L22.8609 14.5098C23.0228 14.3091 23.2624 14.1878 23.52 14.1764L27.1333 14.0166C27.6169 13.9951 27.8947 13.4572 27.6323 13.0504Z" fill="#6A5AE0"/>
</svg>
