<svg width="32" height="32" viewBox="0 0 32 32" fill="none" xmlns="http://www.w3.org/2000/svg">
<path opacity="0.4" d="M16 30.6668C24.1002 30.6668 30.6667 24.1003 30.6667 16.0001C30.6667 7.89998 24.1002 1.3335 16 1.3335C7.89986 1.3335 1.33337 7.89998 1.33337 16.0001C1.33337 24.1003 7.89986 30.6668 16 30.6668Z" fill="#6A5AE0"/>
<path d="M10.1335 20.0332C9.85482 20.0332 9.57615 19.9306 9.35615 19.7106L6.42282 16.7773C5.99749 16.352 5.99749 15.6479 6.42282 15.2225L9.35615 12.2892C9.78148 11.8639 10.4855 11.8639 10.9108 12.2892C11.3361 12.7145 11.3361 13.4186 10.9108 13.844L8.75481 15.9999L10.9108 18.1559C11.3361 18.5812 11.3361 19.2853 10.9108 19.7106C10.6908 19.9306 10.4121 20.0332 10.1335 20.0332Z" fill="#6A5AE0"/>
<path d="M21.8667 20.0332C21.588 20.0332 21.3093 19.9306 21.0893 19.7106C20.664 19.2853 20.664 18.5812 21.0893 18.1559L23.2453 15.9999L21.0893 13.844C20.664 13.4186 20.664 12.7145 21.0893 12.2892C21.5147 11.8639 22.2187 11.8639 22.644 12.2892L25.5773 15.2225C26.0026 15.6479 26.0026 16.352 25.5773 16.7773L22.644 19.7106C22.424 19.9306 22.1453 20.0332 21.8667 20.0332Z" fill="#6A5AE0"/>
<path d="M14.5334 20.5176C14.3867 20.5176 14.2401 20.4882 14.1081 20.4296C13.5508 20.1949 13.2868 19.5496 13.5361 18.9776L16.4694 12.1282C16.7041 11.5709 17.3494 11.3068 17.9067 11.5562C18.4641 11.7908 18.7281 12.4362 18.4787 13.0082L15.5454 19.8575C15.3694 20.2682 14.9587 20.5176 14.5334 20.5176Z" fill="#6A5AE0"/>
</svg>
