<svg width="32" height="32" viewBox="0 0 32 32" fill="none" xmlns="http://www.w3.org/2000/svg">
<path opacity="0.3" d="M15.8389 12.2664C15.8857 12.2988 15.9412 12.3162 15.9981 12.3162C16.055 12.3162 16.1105 12.2988 16.1573 12.2664C17.4533 11.3797 18.9301 10.7919 20.4809 10.5455C22.0318 10.299 23.618 10.4001 25.125 10.8414C25.1677 10.8542 25.2128 10.8567 25.2567 10.8485C25.3005 10.8404 25.3417 10.8219 25.3769 10.7945C25.4121 10.7672 25.4402 10.7318 25.459 10.6914C25.4777 10.6509 25.4865 10.6066 25.4846 10.5621C25.2703 5.51686 21.095 1.47705 15.9981 1.47705C10.9012 1.47705 6.72595 5.51686 6.5116 10.5642C6.50971 10.6087 6.5185 10.653 6.53724 10.6935C6.55598 10.7339 6.58412 10.7693 6.61932 10.7966C6.65452 10.824 6.69575 10.8425 6.73956 10.8506C6.78338 10.8588 6.82851 10.8563 6.87118 10.8435C8.37822 10.4022 9.96444 10.3011 11.5153 10.5476C13.0661 10.794 14.5429 11.3818 15.8389 12.2685V12.2664Z" fill="#6A5AE0"/>
<path d="M26.4231 12.9668C26.1092 14.5902 25.4216 16.1183 24.4148 17.4299C23.408 18.7415 22.1096 19.8007 20.6224 20.5235C20.5739 20.5466 20.5331 20.5832 20.5049 20.6288C20.4766 20.6745 20.4622 20.7274 20.4632 20.7811C20.4632 20.8628 20.4667 20.9445 20.4667 21.0269C20.4674 22.4628 20.1759 23.8838 19.61 25.2034C19.044 26.523 18.2154 27.7137 17.1747 28.703C17.1436 28.7323 17.1196 28.7685 17.1047 28.8086C17.0897 28.8487 17.0842 28.8917 17.0885 28.9342C17.0928 28.9768 17.1069 29.0178 17.1296 29.0541C17.1523 29.0904 17.183 29.121 17.2194 29.1435C18.7024 30.0471 20.4058 30.5243 22.1424 30.5225C27.1744 30.5225 31.5053 26.3137 31.638 21.2824C31.6834 19.5623 31.2607 17.8622 30.4152 16.3635C29.5696 14.8649 28.3329 13.624 26.8371 12.7734C26.7983 12.7511 26.7546 12.7385 26.7098 12.7366C26.6651 12.7347 26.6205 12.7436 26.5799 12.7626C26.5393 12.7815 26.5038 12.81 26.4766 12.8455C26.4493 12.8811 26.4309 12.9227 26.4231 12.9668Z" fill="#6A5AE0"/>
<path opacity="0.7" d="M25.3944 12.3466C25.4044 12.2814 25.391 12.2149 25.3566 12.1587C25.3223 12.1024 25.2691 12.0602 25.2066 12.0394C23.8925 11.5912 22.4961 11.4371 21.116 11.5878C19.7358 11.7384 18.4055 12.1903 17.2191 12.9114C17.183 12.934 17.1525 12.9645 17.13 13.0007C17.1075 13.0368 17.0935 13.0777 17.0892 13.1201C17.0849 13.1624 17.0903 13.2052 17.1051 13.2452C17.1199 13.2852 17.1436 13.3212 17.1745 13.3506C18.7766 14.875 19.8622 16.8622 20.2794 19.034C20.2876 19.0779 20.3063 19.1192 20.3338 19.1544C20.3614 19.1896 20.3969 19.2177 20.4376 19.2363C20.4782 19.2549 20.5227 19.2635 20.5673 19.2613C20.612 19.2592 20.6555 19.2463 20.6941 19.2239C21.9478 18.509 23.0225 17.5184 23.8368 16.3269C24.6511 15.1354 25.1838 13.7743 25.3944 12.3466Z" fill="#6A5AE0"/>
<path d="M11.5298 21.027C11.5298 20.9447 11.5298 20.863 11.5333 20.7813C11.5344 20.7276 11.5199 20.6747 11.4917 20.629C11.4634 20.5833 11.4226 20.5467 11.3741 20.5236C9.88697 19.8008 8.58856 18.7417 7.58173 17.4301C6.5749 16.1184 5.88732 14.5904 5.57343 12.967C5.5654 12.9234 5.54709 12.8823 5.52003 12.8471C5.49296 12.812 5.45792 12.7838 5.41779 12.7649C5.37767 12.746 5.33362 12.7369 5.2893 12.7384C5.24497 12.7399 5.20164 12.752 5.16289 12.7736C3.66711 13.6242 2.43042 14.865 1.58487 16.3637C0.739326 17.8623 0.316672 19.5625 0.362037 21.2826C0.498187 26.3138 4.82705 30.5226 9.85761 30.5226C11.593 30.5238 13.2952 30.0467 14.7772 29.1437C14.8135 29.1211 14.8443 29.0906 14.867 29.0543C14.8896 29.018 14.9037 28.977 14.908 28.9344C14.9123 28.8918 14.9068 28.8488 14.8919 28.8087C14.8769 28.7686 14.853 28.7325 14.8218 28.7031C13.7811 27.7139 12.9525 26.5232 12.3866 25.2036C11.8206 23.8839 11.5291 22.4629 11.5298 21.027Z" fill="#6A5AE0"/>
<path opacity="0.7" d="M9.8543 11.5317C8.81206 11.5308 7.77684 11.7023 6.79058 12.0393C6.72806 12.0602 6.67492 12.1024 6.64055 12.1586C6.60618 12.2149 6.5928 12.2814 6.60276 12.3465C6.81343 13.7743 7.34608 15.1354 8.1604 16.3269C8.97472 17.5183 10.0494 18.509 11.3031 19.2239C11.3417 19.2463 11.3852 19.2591 11.4298 19.2613C11.4745 19.2635 11.519 19.2549 11.5596 19.2363C11.6002 19.2177 11.6358 19.1896 11.6633 19.1544C11.6909 19.1192 11.7096 19.0779 11.7178 19.0339C12.135 16.8621 13.2206 14.875 14.8227 13.3506C14.8536 13.3212 14.8773 13.2851 14.8921 13.2452C14.9069 13.2052 14.9123 13.1624 14.908 13.12C14.9037 13.0776 14.8897 13.0368 14.8672 13.0006C14.8447 12.9645 14.8142 12.934 14.778 12.9114C13.295 12.0072 11.5912 11.5298 9.8543 11.5317Z" fill="#6A5AE0"/>
<path d="M15.9986 21.5861C14.989 21.5868 13.9846 21.4429 13.0159 21.1588C12.9732 21.146 12.9281 21.1435 12.8842 21.1517C12.8404 21.1598 12.7992 21.1783 12.764 21.2057C12.7288 21.233 12.7007 21.2684 12.6819 21.3088C12.6632 21.3493 12.6544 21.3936 12.6563 21.4381C12.7104 22.7028 13.0175 23.9438 13.5593 25.0879C14.1011 26.2319 14.8666 27.2558 15.8108 28.099C15.8622 28.1457 15.9291 28.1716 15.9986 28.1716C16.068 28.1716 16.135 28.1457 16.1864 28.099C17.1305 27.2558 17.8961 26.2319 18.4379 25.0879C18.9797 23.9438 19.2868 22.7028 19.3409 21.4381C19.3428 21.3936 19.334 21.3493 19.3153 21.3088C19.2965 21.2684 19.2684 21.233 19.2332 21.2057C19.198 21.1783 19.1568 21.1598 19.1129 21.1517C19.0691 21.1435 19.024 21.146 18.9813 21.1588C18.0126 21.4429 17.0081 21.5868 15.9986 21.5861Z" fill="#6A5AE0"/>
<path opacity="0.7" d="M19.2499 19.6535C18.9272 17.4548 17.8432 15.439 16.1869 13.9575C16.135 13.9113 16.0679 13.8857 15.9984 13.8857C15.9289 13.8857 15.8618 13.9113 15.8099 13.9575C14.1536 15.439 13.0696 17.4548 12.7469 19.6535C12.7369 19.7186 12.7503 19.7852 12.7847 19.8414C12.819 19.8976 12.8722 19.9399 12.9347 19.9607C14.9211 20.6375 17.0757 20.6375 19.0621 19.9607C19.1246 19.9399 19.1778 19.8976 19.2122 19.8414C19.2465 19.7852 19.2599 19.7186 19.2499 19.6535Z" fill="#6A5AE0"/>
</svg>
