<svg width="32" height="32" viewBox="0 0 32 32" fill="none" xmlns="http://www.w3.org/2000/svg">
<path opacity="0.4" d="M28.4666 13.3455H24.228C20.752 13.3455 17.9213 10.5148 17.9213 7.03882V2.80016C17.9213 1.9935 17.2613 1.3335 16.4546 1.3335H10.236C5.71865 1.3335 2.06665 4.26683 2.06665 9.50282V22.4975C2.06665 27.7335 5.71865 30.6668 10.236 30.6668H21.764C26.2813 30.6668 29.9333 27.7335 29.9333 22.4975V14.8121C29.9333 14.0055 29.2733 13.3455 28.4666 13.3455Z" fill="#6A5AE0"/>
<path d="M21.5734 1.64175C20.9721 1.04041 19.9307 1.45108 19.9307 2.28708V7.40574C19.9307 9.54707 21.7494 11.3217 23.9641 11.3217C25.3574 11.3364 27.2934 11.3364 28.9507 11.3364C29.7867 11.3364 30.2267 10.3537 29.64 9.76707C27.528 7.64041 23.7441 3.81241 21.5734 1.64175Z" fill="#6A5AE0"/>
<path d="M18.2 18.5667H9.40005C8.79871 18.5667 8.30005 18.068 8.30005 17.4667C8.30005 16.8654 8.79871 16.3667 9.40005 16.3667H18.2C18.8014 16.3667 19.3 16.8654 19.3 17.4667C19.3 18.068 18.8014 18.5667 18.2 18.5667Z" fill="#6A5AE0"/>
<path d="M15.2667 24.4334H9.40005C8.79871 24.4334 8.30005 23.9347 8.30005 23.3334C8.30005 22.7321 8.79871 22.2334 9.40005 22.2334H15.2667C15.868 22.2334 16.3667 22.7321 16.3667 23.3334C16.3667 23.9347 15.868 24.4334 15.2667 24.4334Z" fill="#6A5AE0"/>
</svg>
