<svg width="24" height="24" viewBox="0 0 24 24" fill="none" xmlns="http://www.w3.org/2000/svg">
<path d="M16.8652 11.7862C16.842 9.2238 18.9758 7.97719 19.0734 7.91915C17.8649 6.1677 15.9918 5.92839 15.3336 5.90931C13.7604 5.74474 12.2344 6.84507 11.433 6.84507C10.6156 6.84507 9.38156 5.92521 8.05152 5.95225C6.33998 5.97848 4.73881 6.96352 3.86065 8.49316C2.04833 11.6121 3.39997 16.1954 5.1363 18.7165C6.00487 19.9511 7.0198 21.3297 8.34824 21.2812C9.64789 21.228 10.1334 20.4576 11.7017 20.4576C13.2557 20.4576 13.7116 21.2812 15.0664 21.2502C16.4613 21.228 17.3394 20.01 18.1776 18.7642C19.1813 17.349 19.5844 15.9553 19.6004 15.8838C19.5676 15.8726 16.8915 14.8574 16.8652 11.7862Z" fill="white"/>
<path d="M14.3058 4.25088C15.0049 3.38191 15.4831 2.1997 15.3504 1C14.3386 1.04452 13.0734 1.69565 12.3448 2.54554C11.7001 3.29446 11.1243 4.52199 11.2731 5.67637C12.4096 5.76064 13.5764 5.10633 14.3058 4.25088Z" fill="white"/>
</svg>
