<svg width="40" height="40" viewBox="0 0 40 40" fill="none" xmlns="http://www.w3.org/2000/svg">
<mask id="mask0_1203_35969" style="mask-type:alpha" maskUnits="userSpaceOnUse" x="0" y="0" width="40" height="40">
<path d="M0 10C0 4.47715 4.47715 0 10 0H30C35.5228 0 40 4.47715 40 10V30C40 35.5228 35.5228 40 30 40H10C4.47715 40 0 35.5228 0 30V10Z" fill="#6A5AE0"/>
</mask>
<g mask="url(#mask0_1203_35969)">
<path d="M41.1992 30.131C41.1622 35.7404 38.8807 41.1053 34.8564 45.0456C30.8322 48.9858 25.395 51.1785 19.7407 51.1416C19.4491 51.1397 19.163 51.1323 18.8715 51.1195C17.3145 51.0462 15.7702 50.8054 14.2655 50.4015C14.5581 50.256 14.8451 50.1105 15.1323 49.9541C15.1378 49.9542 15.1433 49.9488 15.1543 49.9434L15.1599 49.9379C15.4636 49.7762 15.7617 49.6144 16.0544 49.4471C16.1262 49.4039 16.198 49.3662 16.2698 49.3284C16.546 49.1665 16.8221 49.0045 17.0929 48.8317C17.1729 48.7893 17.2503 48.7425 17.3249 48.6913C17.5348 48.5671 17.7447 48.432 17.9492 48.2969C18.0929 48.205 18.242 48.1078 18.3802 48.0159C18.5902 47.8753 18.7947 47.7348 18.9992 47.5887C19.1374 47.4968 19.2645 47.4049 19.3973 47.302C19.5741 47.1831 19.7455 47.0532 19.9169 46.9234C20.0717 46.8152 20.221 46.7016 20.3704 46.5825C20.5805 46.4256 20.7851 46.2631 20.9898 46.0898C21.0783 46.0249 21.1668 45.9545 21.2553 45.8787C21.4766 45.7 21.6924 45.5158 21.9082 45.3262C22.0244 45.2287 22.1405 45.1312 22.2568 45.0228C22.3841 44.9145 22.5058 44.8061 22.6276 44.6923C22.86 44.4864 23.0871 44.2696 23.3141 44.0527C23.3444 44.0284 23.3723 44.0012 23.3971 43.9714C23.6186 43.7654 23.8346 43.5485 24.0451 43.3315C24.1946 43.1906 24.3331 43.0441 24.4661 42.8976C24.6267 42.7404 24.7763 42.5776 24.9259 42.4148C25.0146 42.3226 25.0977 42.2304 25.1753 42.1381C25.3748 41.9211 25.5689 41.6985 25.7629 41.476C25.8627 41.3621 25.9625 41.2426 26.0568 41.1232C26.2009 40.9603 26.3396 40.7975 26.4672 40.6291C26.6003 40.4717 26.7279 40.3088 26.85 40.1458C26.9665 40.0047 27.0775 39.858 27.183 39.7168C27.3272 39.5322 27.466 39.3475 27.5993 39.1573C27.7326 38.9672 27.8769 38.7771 28.0102 38.5814C28.0763 38.4962 28.1375 38.4073 28.1936 38.3152C28.3824 38.0435 28.5658 37.7663 28.7437 37.4891C28.9715 37.1467 29.1884 36.7988 29.3943 36.4454C29.4888 36.2931 29.5778 36.1409 29.6669 35.9886C30.3886 34.745 31.0328 33.4586 31.5959 32.1367C31.6796 31.9517 31.7579 31.7666 31.8307 31.5761C31.92 31.3747 31.9984 31.1678 32.0768 30.9609C32.1439 30.7921 32.2111 30.6179 32.2728 30.4436C32.3455 30.253 32.4128 30.057 32.4801 29.8664C32.7268 29.1693 32.9515 28.4666 33.1487 27.7529C33.1994 27.5731 33.2501 27.3988 33.2953 27.2189C33.3291 27.1045 33.3573 26.9955 33.3856 26.8811L33.5213 26.3252C33.7023 25.5677 33.8559 24.8045 33.9875 24.0303L34.0735 23.5068C34.085 23.425 34.0965 23.3487 34.1081 23.2669C34.1424 23.0597 34.1713 22.8525 34.1947 22.6452C34.2352 22.3343 34.2758 22.0235 34.3053 21.7125C34.3169 21.6307 34.3229 21.5489 34.3289 21.4671C34.3524 21.2543 34.3703 21.0361 34.3882 20.8233C34.4061 20.6106 34.4186 20.3869 34.431 20.1686C34.443 20.0159 34.4495 19.8631 34.4561 19.7048C34.4814 19.2028 34.4957 18.7007 34.499 18.1986C34.5007 17.942 34.5023 17.691 34.4929 17.4398C34.4938 17.3088 34.4946 17.1833 34.49 17.0522C34.4765 16.5991 34.4574 16.1514 34.4273 15.7036L34.4274 15.6872C34.4226 15.578 34.4179 15.4688 34.4076 15.3596C34.3875 15.0592 34.362 14.7643 34.3364 14.4639C34.3366 14.4545 34.3348 14.4452 34.3311 14.4366C35.068 15.1112 35.7563 15.8362 36.3911 16.6062L36.4075 16.6227C36.4105 16.6257 36.4124 16.6295 36.413 16.6336C39.5465 20.4413 41.2396 25.2159 41.1992 30.131Z" fill="#FF8FA2"/>
<path d="M34.478 18.1009C34.4381 24.6301 32.6216 31.0271 29.2205 36.6146C25.8196 42.2022 20.9607 46.7725 15.1582 49.842C15.151 49.8503 15.1413 49.856 15.1305 49.8582L15.125 49.8637C14.8382 50.0146 14.5515 50.1601 14.2647 50.3056C12.474 49.8244 10.756 49.1081 9.15589 48.1759C7.99833 47.5037 6.90666 46.7252 5.89521 45.8509C6.08891 45.6502 6.27711 45.4495 6.46534 45.2433L6.47082 45.2379C6.47086 45.2324 6.47644 45.227 6.48198 45.2216L6.48742 45.2216C12.5455 38.6226 15.9235 30.0265 15.968 21.0963C15.9942 17.2495 15.4071 13.4227 14.2286 9.75803L14.2231 9.758C14.2232 9.74708 14.2178 9.73613 14.2179 9.72521L14.2123 9.72517C14.2092 9.71637 14.2074 9.70716 14.207 9.69784C14.0993 9.36415 13.9861 9.03044 13.8673 8.70213L20.0122 8.74248C25.3144 8.77001 30.4147 10.7662 34.3104 14.3387C34.3516 14.7539 34.3819 15.1689 34.4066 15.5894C34.4616 16.4195 34.4836 17.2548 34.478 18.1009Z" fill="#9087E5"/>
<path d="M16.058 21.0968C16.0556 21.4625 16.0477 21.8282 16.0345 22.1884C16.0275 22.423 16.0151 22.6522 16.0026 22.8869C15.9528 23.8254 15.8649 24.7583 15.7388 25.6854C15.71 25.9254 15.6757 26.1599 15.636 26.3944C15.5959 26.6834 15.545 26.9669 15.494 27.2559C15.4486 27.5286 15.3978 27.7957 15.3414 28.0683C15.3301 28.1337 15.3133 28.1991 15.302 28.2645C15.2569 28.488 15.2063 28.717 15.1557 28.9404C14.892 30.102 14.5695 31.2495 14.1897 32.3785C14.1173 32.6018 14.0396 32.8197 13.9618 33.032C13.955 33.0583 13.9457 33.0838 13.934 33.1083C13.8562 33.3316 13.7785 33.544 13.6953 33.7618C13.673 33.8271 13.6453 33.8979 13.6175 33.9687C13.5288 34.2028 13.4345 34.4315 13.3403 34.6601C13.235 34.9214 13.1242 35.1827 13.008 35.4385C12.8917 35.7052 12.77 35.9719 12.6483 36.2386C12.5321 36.4834 12.4106 36.7283 12.2945 36.9677C12.1674 37.2234 12.0403 37.4737 11.9078 37.7185C11.7753 37.9632 11.6428 38.2135 11.5048 38.4582C11.3669 38.7029 11.2289 38.9477 11.091 39.1869C10.9531 39.4262 10.8043 39.6709 10.6555 39.9101C10.5066 40.1493 10.3579 40.383 10.2036 40.6167C9.90061 41.0842 9.58673 41.5461 9.26201 41.9971C8.93729 42.448 8.59625 42.8934 8.25524 43.3333C7.73837 43.9795 7.20345 44.6092 6.65042 45.2224L6.64496 45.2223C6.63947 45.2277 6.63947 45.2277 6.63944 45.2332C6.63943 45.2346 6.63887 45.236 6.63783 45.2371C6.63679 45.238 6.63542 45.2386 6.63395 45.2386C6.44717 45.4448 6.25495 45.651 6.06276 45.8517C5.20839 45.107 4.41495 44.2949 3.69008 43.4234C3.68461 43.413 3.67727 43.4037 3.66845 43.396C0.486431 39.5678 -1.23809 34.7353 -1.19922 29.7555L-1.06033 8.60413L13.9743 8.70285C14.0922 9.03114 14.2045 9.3594 14.3059 9.69305L14.3114 9.69853C14.3118 9.70785 14.3136 9.71707 14.3166 9.72587L14.3221 9.72591L14.322 9.74227C14.3216 9.74524 14.3219 9.74824 14.3228 9.75108C14.3238 9.75391 14.3253 9.75652 14.3273 9.75869L14.3328 9.75872C14.3375 9.77957 14.3447 9.79977 14.3542 9.8189L14.4182 10.0322C14.5999 10.612 14.7651 11.1972 14.9139 11.7932C15.0203 12.1923 15.1158 12.6024 15.2058 13.0123C15.37 13.7558 15.5122 14.5155 15.6326 15.286C15.6586 15.4717 15.6902 15.6521 15.7108 15.8378C15.7732 16.2913 15.8303 16.7447 15.8763 17.2036C15.897 17.3729 15.9122 17.5477 15.922 17.717C15.9527 18.0338 15.9724 18.356 15.9921 18.6727C16.0414 19.4755 16.0633 20.2835 16.058 21.0968Z" fill="#C4D0FB"/>
<path d="M0 10C0 4.47715 4.47715 0 10 0H30C35.5228 0 40 4.47715 40 10V25.7143C40 31.2371 35.5228 35.7143 30 35.7143H10C4.47715 35.7143 0 31.2371 0 25.7143V10Z" fill="white"/>
<mask id="mask1_1203_35969" style="mask-type:alpha" maskUnits="userSpaceOnUse" x="9" y="5" width="22" height="25">
<path fill-rule="evenodd" clip-rule="evenodd" d="M19.3604 24.35C20.1026 24.316 20.8325 24.1993 21.5368 24.0054L22.5305 24.977C23.4657 25.8915 24.9853 25.8949 25.9246 24.9847C26.864 24.0745 26.8673 22.5953 25.9321 21.6808L24.8039 20.5776C24.5979 20.3761 24.3635 20.2189 24.1132 20.1059C23.3791 19.5668 22.3341 19.6306 21.4913 20.0394C20.7771 20.3858 19.9903 20.5878 19.1791 20.6249C17.7437 20.6905 16.3346 20.235 15.2274 19.3474C14.1202 18.4598 13.3944 17.204 13.1919 15.8255C12.9894 14.4469 13.3248 13.0448 14.1325 11.8931C14.9403 10.7415 16.1622 9.9231 17.5595 9.59805C18.9568 9.27299 20.429 9.46459 21.6882 10.1354C22.9475 10.8062 23.9033 11.908 24.3687 13.2254C24.6139 13.9193 24.7138 14.6467 24.67 15.3666C24.6047 16.4392 25.0208 17.6009 26.0117 18.0164C26.971 18.4186 28.0988 17.9818 28.3205 16.9655C28.6772 15.3303 28.5761 13.6202 28.0098 12.0174C27.234 9.8218 25.641 7.98549 23.5423 6.86748C21.4435 5.74946 18.9899 5.43012 16.6611 5.97188C14.3323 6.51364 12.2957 7.87756 10.9495 9.79699C9.6033 11.7164 9.04429 14.0533 9.38175 16.3509C9.71921 18.6485 10.9289 20.7415 12.7742 22.2208C14.6196 23.7001 16.968 24.4593 19.3604 24.35ZM26.6213 26.0084C25.6821 26.9185 25.6785 28.3977 26.6135 29.3121C27.5486 30.2264 29.0683 30.2296 30.0075 29.3195C30.9467 28.4094 30.9503 26.9302 30.0152 26.0159C29.0801 25.1016 27.5605 25.0983 26.6213 26.0084Z" fill="#6A5AE0"/>
</mask>
<g mask="url(#mask1_1203_35969)">
<path fill-rule="evenodd" clip-rule="evenodd" d="M22.308 37.568L41.7579 18.6124L37.5525 14.6489L15.2991 36.5341L22.308 37.568Z" fill="#6A5AE0"/>
<path fill-rule="evenodd" clip-rule="evenodd" d="M18.4876 32.518L37.3481 14.5262L33.2701 10.7643L11.6911 31.5366L18.4876 32.518Z" fill="#6A5AE0"/>
<path fill-rule="evenodd" clip-rule="evenodd" d="M12.8149 31.7517L34.9777 10.1198L31.0931 6.07602L8.93028 27.7079L12.8149 31.7517Z" fill="#6A5AE0"/>
<path fill-rule="evenodd" clip-rule="evenodd" d="M8.8129 28.245L30.9338 6.55192L25.1858 4.16055L5.67766 23.2915L8.8129 28.245Z" fill="#6A5AE0"/>
<path fill-rule="evenodd" clip-rule="evenodd" d="M5.67766 23.5835L25.7222 4.16055L14.984 5.20107L5.67766 15.086V23.5835Z" fill="#6A5AE0"/>
</g>
</g>
</svg>
