<svg width="67" height="18" viewBox="0 0 67 18" fill="none" xmlns="http://www.w3.org/2000/svg">
<path d="M12.8783 15.6376C13.0594 15.9221 13.1499 16.2002 13.1499 16.4718C13.1499 16.821 13.0012 17.1121 12.7037 17.3449C12.4191 17.5777 12.0829 17.6941 11.6948 17.6941C11.4232 17.6941 11.1645 17.6294 10.9188 17.5001C10.686 17.3707 10.4984 17.1832 10.3562 16.9375L9.19209 14.9973C9.03688 14.7387 8.82993 14.5511 8.57125 14.4347C8.31257 14.3183 7.96335 14.2601 7.52359 14.2601C6.16551 14.2601 4.98205 13.9755 3.97319 13.4065C2.97726 12.8244 2.20769 12.0096 1.66446 10.9619C1.12122 9.90132 0.849609 8.65964 0.849609 7.2369C0.849609 5.81415 1.12122 4.57894 1.66446 3.53128C2.20769 2.47069 2.97726 1.65584 3.97319 1.08674C4.98205 0.517643 6.16551 0.233093 7.52359 0.233093C8.88167 0.233093 10.0587 0.517643 11.0546 1.08674C12.0635 1.65584 12.8395 2.47069 13.3827 3.53128C13.926 4.57894 14.1976 5.81415 14.1976 7.2369C14.1976 8.72431 13.9001 10.0113 13.3051 11.0977C12.7231 12.1712 11.8888 12.9732 10.8024 13.5035C11.4361 13.6975 11.947 14.1114 12.3351 14.7451L12.8783 15.6376ZM7.52359 11.9126C8.66179 11.9126 9.55424 11.5116 10.2009 10.7097C10.8606 9.90778 11.1904 8.75018 11.1904 7.2369C11.1904 5.72361 10.867 4.57248 10.2203 3.7835C9.57364 2.98158 8.67472 2.58063 7.52359 2.58063C6.37246 2.58063 5.47354 2.98158 4.82684 3.7835C4.19307 4.57248 3.87618 5.72361 3.87618 7.2369C3.87618 8.75018 4.19953 9.90778 4.84624 10.7097C5.49294 11.5116 6.38539 11.9126 7.52359 11.9126Z" fill="#0C092A"/>
<path d="M23.9779 4.36553C24.4305 4.36553 24.7862 4.4884 25.0449 4.73415C25.3165 4.9799 25.4523 5.31619 25.4523 5.74301V12.8632C25.4523 13.2642 25.3101 13.5875 25.0255 13.8333C24.7539 14.079 24.3982 14.2019 23.9585 14.2019C23.5446 14.2019 23.2147 14.0855 22.969 13.8527C22.7232 13.6199 22.6004 13.3094 22.6004 12.9214V12.7274C22.3029 13.2189 21.9084 13.594 21.4169 13.8527C20.9383 14.1114 20.3951 14.2407 19.7872 14.2407C18.5843 14.2407 17.6854 13.9109 17.0905 13.2512C16.5084 12.5787 16.2174 11.5698 16.2174 10.2247V5.74301C16.2174 5.31619 16.3468 4.9799 16.6054 4.73415C16.877 4.4884 17.2392 4.36553 17.6919 4.36553C18.1446 4.36553 18.5003 4.4884 18.759 4.73415C19.0176 4.9799 19.147 5.31619 19.147 5.74301V10.2829C19.147 10.852 19.2634 11.2723 19.4962 11.5439C19.7419 11.8156 20.1106 11.9514 20.6021 11.9514C21.1712 11.9514 21.6303 11.7574 21.9795 11.3693C22.3417 10.9813 22.5228 10.4704 22.5228 9.83665V5.74301C22.5228 5.31619 22.6521 4.9799 22.9108 4.73415C23.1695 4.4884 23.5252 4.36553 23.9779 4.36553Z" fill="#0C092A"/>
<path d="M35.3443 11.2529C35.603 11.2529 35.81 11.3564 35.9652 11.5633C36.1333 11.7703 36.2174 12.0354 36.2174 12.3588C36.2174 12.5787 36.1527 12.7856 36.0234 12.9796C35.894 13.1607 35.713 13.3159 35.4801 13.4453C35.0404 13.6781 34.5295 13.8721 33.9474 14.0273C33.3654 14.1696 32.8287 14.2407 32.3372 14.2407C31.3024 14.2407 30.397 14.0402 29.621 13.6393C28.8579 13.2383 28.2694 12.6692 27.8555 11.932C27.4416 11.1818 27.2347 10.3023 27.2347 9.29341C27.2347 8.32336 27.4351 7.46324 27.8361 6.71307C28.2371 5.96289 28.7932 5.38086 29.5046 4.96697C30.216 4.54014 31.0243 4.32673 31.9297 4.32673C32.7963 4.32673 33.553 4.52074 34.1997 4.90876C34.8593 5.28385 35.3702 5.82708 35.7324 6.53846C36.0945 7.2369 36.2756 8.05821 36.2756 9.0024C36.2756 9.28695 36.2044 9.50683 36.0622 9.66203C35.9328 9.80431 35.7453 9.87545 35.4995 9.87545H30.0672C30.1578 10.6386 30.3906 11.1947 30.7657 11.5439C31.1408 11.8802 31.6775 12.0484 32.376 12.0484C32.751 12.0484 33.0873 12.0031 33.3848 11.9126C33.6823 11.822 34.0121 11.6992 34.3743 11.5439C34.5554 11.4663 34.73 11.4017 34.8981 11.3499C35.0662 11.2853 35.215 11.2529 35.3443 11.2529ZM32.0073 6.34444C31.4512 6.34444 31.0049 6.52552 30.6687 6.88768C30.3324 7.2369 30.1319 7.74779 30.0672 8.42036H33.8116C33.7728 7.73486 33.5982 7.21749 33.2878 6.86827C32.9903 6.51905 32.5635 6.34444 32.0073 6.34444Z" fill="#0C092A"/>
<path d="M45.6891 11.2529C45.9477 11.2529 46.1547 11.3564 46.3099 11.5633C46.478 11.7703 46.5621 12.0354 46.5621 12.3588C46.5621 12.5787 46.4974 12.7856 46.3681 12.9796C46.2388 13.1607 46.0577 13.3159 45.8249 13.4453C45.3851 13.6781 44.8742 13.8721 44.2922 14.0273C43.7101 14.1696 43.1734 14.2407 42.6819 14.2407C41.6472 14.2407 40.7418 14.0402 39.9657 13.6393C39.2026 13.2383 38.6141 12.6692 38.2002 11.932C37.7863 11.1818 37.5794 10.3023 37.5794 9.29341C37.5794 8.32336 37.7799 7.46324 38.1808 6.71307C38.5818 5.96289 39.138 5.38086 39.8493 4.96697C40.5607 4.54014 41.3691 4.32673 42.2745 4.32673C43.1411 4.32673 43.8977 4.52074 44.5444 4.90876C45.204 5.28385 45.7149 5.82708 46.0771 6.53846C46.4392 7.2369 46.6203 8.05821 46.6203 9.0024C46.6203 9.28695 46.5492 9.50683 46.4069 9.66203C46.2776 9.80431 46.09 9.87545 45.8443 9.87545H40.412C40.5025 10.6386 40.7353 11.1947 41.1104 11.5439C41.4855 11.8802 42.0223 12.0484 42.7207 12.0484C43.0958 12.0484 43.4321 12.0031 43.7296 11.9126C44.027 11.822 44.3569 11.6992 44.719 11.5439C44.9001 11.4663 45.0747 11.4017 45.2428 11.3499C45.411 11.2853 45.5597 11.2529 45.6891 11.2529ZM42.3521 6.34444C41.7959 6.34444 41.3497 6.52552 41.0134 6.88768C40.6771 7.2369 40.4766 7.74779 40.412 8.42036H44.1564C44.1176 7.73486 43.943 7.21749 43.6325 6.86827C43.3351 6.51905 42.9082 6.34444 42.3521 6.34444Z" fill="#0C092A"/>
<path d="M55.2835 11.8932C56.163 11.8932 56.6028 12.2618 56.6028 12.999C56.6028 13.7233 56.163 14.0855 55.2835 14.0855H48.9976C48.6095 14.0855 48.2927 13.9626 48.0469 13.7169C47.8012 13.4711 47.6783 13.1801 47.6783 12.8438C47.6783 12.4558 47.8141 12.1195 48.0857 11.835L52.6256 6.75187H48.9006C48.021 6.75187 47.5813 6.38971 47.5813 5.66541C47.5813 4.92816 48.021 4.55954 48.9006 4.55954H54.9537C55.3547 4.55954 55.6715 4.68242 55.9043 4.92816C56.1501 5.17391 56.273 5.47139 56.273 5.82061C56.273 6.20864 56.1372 6.54492 55.8655 6.82947L51.3451 11.8932H55.2835Z" fill="#0C092A"/>
<path d="M64.4002 5.19978C64.5166 4.92816 64.6783 4.72768 64.8852 4.59834C65.1051 4.469 65.3379 4.40433 65.5837 4.40433C65.9588 4.40433 66.2886 4.52721 66.5731 4.77295C66.8577 5.00577 67 5.29032 67 5.6266C67 5.80768 66.9547 5.98876 66.8642 6.16983L61.6453 16.8793C61.5159 17.1509 61.3413 17.3513 61.1214 17.4807C60.9016 17.623 60.6687 17.6941 60.423 17.6941C60.0608 17.6941 59.744 17.5777 59.4723 17.3449C59.2007 17.1121 59.0649 16.8275 59.0649 16.4912C59.0649 16.2843 59.1102 16.0903 59.2007 15.9092L60.4812 13.2512L57.0278 6.16983C56.9502 5.98876 56.9114 5.81415 56.9114 5.646C56.9114 5.29678 57.0601 4.9993 57.3576 4.75355C57.668 4.50781 58.0173 4.38493 58.4053 4.38493C58.664 4.38493 58.9032 4.45607 59.1231 4.59834C59.343 4.72768 59.5176 4.92816 59.6469 5.19978L62.0527 10.4381L64.4002 5.19978Z" fill="#0C092A"/>
</svg>
