<svg width="100" height="27" viewBox="0 0 100 27" fill="none" xmlns="http://www.w3.org/2000/svg">
<path d="M18.8175 23.1634C19.0891 23.5902 19.2249 24.0073 19.2249 24.4147C19.2249 24.9386 19.0018 25.3751 18.5556 25.7243C18.1287 26.0735 17.6243 26.2481 17.0423 26.2481C16.6348 26.2481 16.2468 26.1511 15.8782 25.9571C15.529 25.7631 15.2477 25.4818 15.0343 25.1132L13.2882 22.203C13.0553 21.815 12.7449 21.5337 12.3569 21.3591C11.9689 21.1845 11.4451 21.0972 10.7854 21.0972C8.7483 21.0972 6.97309 20.6703 5.45981 19.8167C3.96592 18.9436 2.81155 17.7214 1.99671 16.1499C1.18186 14.559 0.774437 12.6965 0.774437 10.5623C0.774437 8.42822 1.18186 6.57542 1.99671 5.00393C2.81155 3.41303 3.96592 2.19076 5.45981 1.33712C6.97309 0.483465 8.7483 0.0566406 10.7854 0.0566406C12.8225 0.0566406 14.588 0.483465 16.0819 1.33712C17.5952 2.19076 18.7593 3.41303 19.5741 5.00393C20.389 6.57542 20.7964 8.42822 20.7964 10.5623C20.7964 12.7935 20.3502 14.7239 19.4577 16.3536C18.5847 17.9639 17.3333 19.1667 15.7036 19.9622C16.6543 20.2532 17.4206 20.874 18.0026 21.8247L18.8175 23.1634ZM10.7854 17.5758C12.4927 17.5758 13.8314 16.9744 14.8014 15.7715C15.7909 14.5687 16.2856 12.8323 16.2856 10.5623C16.2856 8.29241 15.8006 6.56572 14.8305 5.38225C13.8605 4.17938 12.5121 3.57794 10.7854 3.57794C9.05871 3.57794 7.71034 4.17938 6.74028 5.38225C5.78963 6.56572 5.3143 8.29241 5.3143 10.5623C5.3143 12.8323 5.79933 14.5687 6.76938 15.7715C7.73944 16.9744 9.07812 17.5758 10.7854 17.5758Z" fill="white"/>
<path d="M35.4668 6.2553C36.1459 6.2553 36.6794 6.43961 37.0674 6.80823C37.4748 7.17685 37.6785 7.68128 37.6785 8.32152V19.0018C37.6785 19.6033 37.4651 20.0883 37.0383 20.4569C36.6309 20.8255 36.0974 21.0098 35.4377 21.0098C34.8169 21.0098 34.3221 20.8352 33.9535 20.486C33.5849 20.1368 33.4006 19.6712 33.4006 19.0891V18.7981C32.9544 19.5354 32.3626 20.098 31.6254 20.486C30.9076 20.874 30.0927 21.0681 29.1809 21.0681C27.3765 21.0681 26.0282 20.5733 25.1357 19.5839C24.2627 18.575 23.8261 17.0617 23.8261 15.044V8.32152C23.8261 7.68128 24.0202 7.17685 24.4082 6.80823C24.8156 6.43961 25.3588 6.2553 26.0379 6.2553C26.7169 6.2553 27.2504 6.43961 27.6385 6.80823C28.0265 7.17685 28.2205 7.68128 28.2205 8.32152V15.1313C28.2205 15.985 28.3951 16.6155 28.7443 17.0229C29.1129 17.4303 29.6659 17.6341 30.4031 17.6341C31.2568 17.6341 31.9455 17.343 32.4693 16.761C33.0126 16.179 33.2842 15.4126 33.2842 14.462V8.32152C33.2842 7.68128 33.4782 7.17685 33.8662 6.80823C34.2542 6.43961 34.7878 6.2553 35.4668 6.2553Z" fill="white"/>
<path d="M52.5165 16.5864C52.9046 16.5864 53.215 16.7416 53.4478 17.052C53.7 17.3624 53.8261 17.7602 53.8261 18.2452C53.8261 18.575 53.7291 18.8854 53.5351 19.1764C53.3411 19.4481 53.0695 19.6809 52.7202 19.8749C52.0606 20.2241 51.2943 20.5151 50.4212 20.7479C49.5482 20.9613 48.743 21.0681 48.0058 21.0681C46.4537 21.0681 45.0956 20.7673 43.9315 20.1659C42.7869 19.5645 41.9041 18.7108 41.2833 17.605C40.6624 16.4797 40.352 15.1604 40.352 13.6471C40.352 12.192 40.6527 10.9019 41.2542 9.7766C41.8556 8.65133 42.6899 7.77829 43.7569 7.15745C44.824 6.51721 46.0366 6.19709 47.3946 6.19709C48.6945 6.19709 49.8295 6.48811 50.7995 7.07014C51.789 7.63278 52.5553 8.44762 53.0986 9.51469C53.6418 10.5623 53.9134 11.7943 53.9134 13.2106C53.9134 13.6374 53.8067 13.9672 53.5933 14.2001C53.3993 14.4135 53.118 14.5202 52.7493 14.5202H44.6009C44.7367 15.6648 45.0859 16.4991 45.6485 17.0229C46.2112 17.5273 47.0163 17.7796 48.064 17.7796C48.6266 17.7796 49.131 17.7117 49.5773 17.5758C50.0235 17.44 50.5182 17.2557 51.0614 17.0229C51.3331 16.9065 51.595 16.8095 51.8472 16.7319C52.0994 16.6349 52.3225 16.5864 52.5165 16.5864ZM47.511 9.22367C46.6768 9.22367 46.0075 9.49528 45.503 10.0385C44.9986 10.5623 44.6979 11.3287 44.6009 12.3375H50.2175C50.1593 11.3093 49.8974 10.5332 49.4318 10.0094C48.9855 9.48558 48.3453 9.22367 47.511 9.22367Z" fill="white"/>
<path d="M68.0336 16.5864C68.4217 16.5864 68.7321 16.7416 68.9649 17.052C69.2171 17.3624 69.3432 17.7602 69.3432 18.2452C69.3432 18.575 69.2462 18.8854 69.0522 19.1764C68.8582 19.4481 68.5866 19.6809 68.2373 19.8749C67.5777 20.2241 66.8114 20.5151 65.9383 20.7479C65.0653 20.9613 64.2601 21.0681 63.5229 21.0681C61.9708 21.0681 60.6127 20.7673 59.4486 20.1659C58.304 19.5645 57.4212 18.7108 56.8004 17.605C56.1796 16.4797 55.8691 15.1604 55.8691 13.6471C55.8691 12.192 56.1699 10.9019 56.7713 9.7766C57.3727 8.65133 58.207 7.77829 59.274 7.15745C60.3411 6.51721 61.5537 6.19709 62.9117 6.19709C64.2116 6.19709 65.3466 6.48811 66.3166 7.07014C67.3061 7.63278 68.0724 8.44762 68.6157 9.51469C69.1589 10.5623 69.4305 11.7943 69.4305 13.2106C69.4305 13.6374 69.3238 13.9672 69.1104 14.2001C68.9164 14.4135 68.6351 14.5202 68.2664 14.5202H60.118C60.2538 15.6648 60.603 16.4991 61.1656 17.0229C61.7283 17.5273 62.5334 17.7796 63.5811 17.7796C64.1437 17.7796 64.6481 17.7117 65.0944 17.5758C65.5406 17.44 66.0353 17.2557 66.5786 17.0229C66.8502 16.9065 67.1121 16.8095 67.3643 16.7319C67.6165 16.6349 67.8396 16.5864 68.0336 16.5864ZM63.0281 9.22367C62.1939 9.22367 61.5246 9.49528 61.0201 10.0385C60.5157 10.5623 60.215 11.3287 60.118 12.3375H65.7346C65.6764 11.3093 65.4145 10.5332 64.9489 10.0094C64.5026 9.48558 63.8624 9.22367 63.0281 9.22367Z" fill="white"/>
<path d="M82.4253 17.5467C83.7446 17.5467 84.4042 18.0997 84.4042 19.2055C84.4042 20.292 83.7446 20.8352 82.4253 20.8352H72.9964C72.4143 20.8352 71.939 20.6509 71.5704 20.2823C71.2018 19.9137 71.0175 19.4772 71.0175 18.9727C71.0175 18.3907 71.2212 17.8863 71.6286 17.4594L78.4384 9.8348H72.8509C71.5316 9.8348 70.872 9.29157 70.872 8.20511C70.872 7.09925 71.5316 6.54631 72.8509 6.54631H81.9306C82.532 6.54631 83.0073 6.73063 83.3566 7.09925C83.7252 7.46787 83.9095 7.91409 83.9095 8.43792C83.9095 9.01996 83.7058 9.52439 83.2984 9.95121L76.5177 17.5467H82.4253Z" fill="white"/>
<path d="M96.1004 7.50667C96.275 7.09925 96.5175 6.79853 96.8279 6.60452C97.1577 6.41051 97.507 6.3135 97.8756 6.3135C98.4382 6.3135 98.9329 6.49781 99.3598 6.86643C99.7866 7.21565 100 7.64248 100 8.14691C100 8.41852 99.9321 8.69014 99.7963 8.96175L91.9679 25.0259C91.7739 25.4333 91.512 25.734 91.1822 25.928C90.8524 26.1414 90.5032 26.2481 90.1345 26.2481C89.5913 26.2481 89.116 26.0735 88.7085 25.7243C88.3011 25.3751 88.0974 24.9483 88.0974 24.4438C88.0974 24.1334 88.1653 23.8424 88.3011 23.5708L90.2218 19.5839L85.0417 8.96175C84.9253 8.69014 84.8671 8.42822 84.8671 8.17601C84.8671 7.65218 85.0902 7.20595 85.5365 6.83733C86.0021 6.46871 86.5259 6.2844 87.108 6.2844C87.496 6.2844 87.8549 6.39111 88.1847 6.60452C88.5145 6.79853 88.7765 7.09925 88.9705 7.50667L92.5791 15.3641L96.1004 7.50667Z" fill="white"/>
</svg>
