<svg width="83" height="22" viewBox="0 0 83 22" fill="none" xmlns="http://www.w3.org/2000/svg">
<path d="M15.0926 19.3283C15.3198 19.6853 15.4334 20.0342 15.4334 20.375C15.4334 20.8132 15.2468 21.1783 14.8735 21.4704C14.5165 21.7626 14.0945 21.9086 13.6077 21.9086C13.2669 21.9086 12.9423 21.8275 12.634 21.6652C12.3419 21.5029 12.1065 21.2676 11.928 20.9592L10.4675 18.525C10.2727 18.2004 10.0131 17.9651 9.68848 17.819C9.36391 17.673 8.92573 17.5999 8.37396 17.5999C6.66996 17.5999 5.18504 17.2429 3.91921 16.5288C2.66961 15.7985 1.704 14.7761 1.0224 13.4616C0.340801 12.1309 0 10.5729 0 8.78779C0 7.00264 0.340801 5.45281 1.0224 4.13829C1.704 2.80755 2.66961 1.78515 3.91921 1.07109C5.18504 0.357029 6.66996 0 8.37396 0C10.078 0 11.5548 0.357029 12.8044 1.07109C14.0702 1.78515 15.0439 2.80755 15.7255 4.13829C16.4071 5.45281 16.7479 7.00264 16.7479 8.78779C16.7479 10.6541 16.3747 12.2688 15.6281 13.632C14.8979 14.979 13.8511 15.9852 12.4879 16.6506C13.2831 16.894 13.9241 17.4133 14.411 18.2085L15.0926 19.3283ZM8.37396 14.6544C9.80208 14.6544 10.9219 14.1513 11.7333 13.1452C12.5609 12.139 12.9748 10.6865 12.9748 8.78779C12.9748 6.88904 12.5691 5.4447 11.7576 4.45475C10.9462 3.44858 9.81831 2.94549 8.37396 2.94549C6.92962 2.94549 5.80173 3.44858 4.9903 4.45475C4.1951 5.4447 3.79749 6.88904 3.79749 8.78779C3.79749 10.6865 4.20321 12.139 5.01464 13.1452C5.82607 14.1513 6.94584 14.6544 8.37396 14.6544Z" fill="white"/>
<path d="M29.0194 5.18504C29.5874 5.18504 30.0337 5.33921 30.3583 5.64755C30.6991 5.9559 30.8695 6.37784 30.8695 6.91339V15.8472C30.8695 16.3503 30.691 16.756 30.3339 17.0644C29.9931 17.3727 29.5468 17.5269 28.9951 17.5269C28.4758 17.5269 28.0619 17.3808 27.7536 17.0887C27.4452 16.7966 27.2911 16.4071 27.2911 15.9203V15.6768C26.9178 16.2935 26.4228 16.7641 25.8061 17.0887C25.2057 17.4133 24.5241 17.5756 23.7613 17.5756C22.2521 17.5756 21.1242 17.1618 20.3777 16.3341C19.6474 15.4902 19.2822 14.2244 19.2822 12.5366V6.91339C19.2822 6.37784 19.4445 5.9559 19.7691 5.64755C20.1099 5.33921 20.5643 5.18504 21.1323 5.18504C21.7003 5.18504 22.1466 5.33921 22.4712 5.64755C22.7957 5.9559 22.958 6.37784 22.958 6.91339V12.6096C22.958 13.3237 23.1041 13.8511 23.3962 14.1919C23.7045 14.5327 24.1671 14.7031 24.7837 14.7031C25.4978 14.7031 26.0739 14.4597 26.5121 13.9728C26.9665 13.486 27.1937 12.8449 27.1937 12.0497V6.91339C27.1937 6.37784 27.356 5.9559 27.6805 5.64755C28.0051 5.33921 28.4514 5.18504 29.0194 5.18504Z" fill="white"/>
<path d="M43.2811 13.8268C43.6057 13.8268 43.8654 13.9566 44.0601 14.2163C44.2711 14.4759 44.3766 14.8086 44.3766 15.2143C44.3766 15.4902 44.2954 15.7499 44.1331 15.9933C43.9708 16.2205 43.7436 16.4152 43.4515 16.5775C42.8997 16.8696 42.2587 17.1131 41.5284 17.3078C40.7981 17.4863 40.1247 17.5756 39.508 17.5756C38.2097 17.5756 37.0737 17.324 36.1 16.821C35.1425 16.3179 34.4041 15.6038 33.8848 14.6788C33.3654 13.7375 33.1058 12.634 33.1058 11.3681C33.1058 10.151 33.3573 9.07179 33.8604 8.13053C34.3635 7.18927 35.0613 6.45899 35.9539 5.93967C36.8465 5.40413 37.8608 5.13635 38.9968 5.13635C40.0841 5.13635 41.0335 5.37978 41.8449 5.86664C42.6726 6.33727 43.3136 7.01887 43.768 7.91145C44.2224 8.78779 44.4496 9.81831 44.4496 11.003C44.4496 11.36 44.3603 11.6359 44.1818 11.8307C44.0195 12.0092 43.7842 12.0984 43.4759 12.0984H36.6599C36.7735 13.0559 37.0656 13.7537 37.5362 14.1919C38.0068 14.6139 38.6803 14.8248 39.5567 14.8248C40.0273 14.8248 40.4492 14.768 40.8225 14.6544C41.1957 14.5408 41.6096 14.3867 42.064 14.1919C42.2912 14.0945 42.5103 14.0134 42.7212 13.9485C42.9322 13.8673 43.1188 13.8268 43.2811 13.8268ZM39.0941 7.66802C38.3963 7.66802 37.8364 7.89522 37.4145 8.34962C36.9925 8.78779 36.741 9.42882 36.6599 10.2727H41.358C41.3093 9.41259 41.0903 8.76345 40.7008 8.32528C40.3275 7.8871 39.792 7.66802 39.0941 7.66802Z" fill="white"/>
<path d="M56.2608 13.8268C56.5854 13.8268 56.8451 13.9566 57.0398 14.2163C57.2508 14.4759 57.3563 14.8086 57.3563 15.2143C57.3563 15.4902 57.2751 15.7499 57.1128 15.9933C56.9506 16.2205 56.7234 16.4152 56.4312 16.5775C55.8795 16.8696 55.2384 17.1131 54.5081 17.3078C53.7779 17.4863 53.1044 17.5756 52.4877 17.5756C51.1894 17.5756 50.0534 17.324 49.0797 16.821C48.1222 16.3179 47.3838 15.6038 46.8645 14.6788C46.3452 13.7375 46.0855 12.634 46.0855 11.3681C46.0855 10.151 46.337 9.07179 46.8401 8.13053C47.3432 7.18927 48.041 6.45899 48.9336 5.93967C49.8262 5.40413 50.8405 5.13635 51.9765 5.13635C53.0638 5.13635 54.0132 5.37978 54.8246 5.86664C55.6523 6.33727 56.2933 7.01887 56.7477 7.91145C57.2021 8.78779 57.4293 9.81831 57.4293 11.003C57.4293 11.36 57.34 11.6359 57.1615 11.8307C56.9992 12.0092 56.7639 12.0984 56.4556 12.0984H49.6396C49.7532 13.0559 50.0453 13.7537 50.5159 14.1919C50.9865 14.6139 51.66 14.8248 52.5364 14.8248C53.007 14.8248 53.4289 14.768 53.8022 14.6544C54.1755 14.5408 54.5893 14.3867 55.0437 14.1919C55.2709 14.0945 55.49 14.0134 55.701 13.9485C55.9119 13.8673 56.0986 13.8268 56.2608 13.8268ZM52.0739 7.66802C51.376 7.66802 50.8161 7.89522 50.3942 8.34962C49.9723 8.78779 49.7207 9.42882 49.6396 10.2727H54.3378C54.2891 9.41259 54.07 8.76345 53.6805 8.32528C53.3072 7.8871 52.7717 7.66802 52.0739 7.66802Z" fill="white"/>
<path d="M68.2992 14.6301C69.4027 14.6301 69.9545 15.0926 69.9545 16.0176C69.9545 16.9264 69.4027 17.3808 68.2992 17.3808H60.4121C59.9252 17.3808 59.5276 17.2267 59.2193 16.9183C58.9109 16.61 58.7567 16.2448 58.7567 15.8229C58.7567 15.336 58.9271 14.9141 59.2679 14.5571L64.9642 8.17922H60.2904C59.1868 8.17922 58.635 7.72482 58.635 6.81601C58.635 5.89098 59.1868 5.42847 60.2904 5.42847H67.8853C68.3884 5.42847 68.786 5.58264 69.0781 5.89098C69.3865 6.19933 69.5407 6.57259 69.5407 7.01076C69.5407 7.49762 69.3703 7.91956 69.0295 8.27659L63.3576 14.6301H68.2992Z" fill="white"/>
<path d="M79.7381 6.23178C79.8841 5.89098 80.087 5.63944 80.3466 5.47715C80.6225 5.31487 80.9146 5.23373 81.223 5.23373C81.6936 5.23373 82.1074 5.3879 82.4645 5.69624C82.8215 5.98836 83 6.34539 83 6.76733C83 6.99453 82.9432 7.22173 82.8296 7.44893L76.2814 20.8862C76.1191 21.227 75.9 21.4786 75.6241 21.6408C75.3482 21.8194 75.0561 21.9086 74.7478 21.9086C74.2934 21.9086 73.8958 21.7626 73.555 21.4704C73.2141 21.1783 73.0438 20.8213 73.0438 20.3994C73.0438 20.1397 73.1006 19.8963 73.2141 19.6691L74.8208 16.3341L70.4877 7.44893C70.3904 7.22173 70.3417 7.00264 70.3417 6.79167C70.3417 6.3535 70.5283 5.98024 70.9016 5.6719C71.2911 5.36355 71.7292 5.20938 72.2161 5.20938C72.5407 5.20938 72.8409 5.29864 73.1168 5.47715C73.3927 5.63944 73.6118 5.89098 73.774 6.23178L76.7926 12.8044L79.7381 6.23178Z" fill="white"/>
</svg>
