<svg width="125" height="34" viewBox="0 0 125 34" fill="none" xmlns="http://www.w3.org/2000/svg">
<path d="M22.8889 29.4924C23.2297 30.0279 23.4001 30.5513 23.4001 31.0625C23.4001 31.7198 23.1202 32.2675 22.5603 32.7057C22.0247 33.1438 21.3918 33.3629 20.6615 33.3629C20.1503 33.3629 19.6635 33.2412 19.201 32.9978C18.7628 32.7544 18.4098 32.4014 18.142 31.9389L15.9512 28.2874C15.6591 27.8006 15.2696 27.4476 14.7827 27.2285C14.2959 27.0094 13.6386 26.8999 12.8109 26.8999C10.2549 26.8999 8.02756 26.3643 6.12881 25.2933C4.25441 24.1978 2.80601 22.6642 1.7836 20.6924C0.761201 18.6963 0.25 16.3594 0.25 13.6817C0.25 11.004 0.761201 8.67922 1.7836 6.70744C2.80601 4.71132 4.25441 3.17772 6.12881 2.10663C8.02756 1.03554 10.2549 0.5 12.8109 0.5C15.3669 0.5 17.5821 1.03554 19.4566 2.10663C21.3553 3.17772 22.8159 4.71132 23.8383 6.70744C24.8607 8.67922 25.3719 11.004 25.3719 13.6817C25.3719 16.4811 24.812 18.9032 23.6922 20.948C22.5968 22.9685 21.0267 24.4778 18.9819 25.4758C20.1747 25.841 21.1362 26.6199 21.8665 27.8127L22.8889 29.4924ZM12.8109 22.4816C14.9531 22.4816 16.6328 21.727 17.8499 20.2178C19.0914 18.7085 19.7122 16.5298 19.7122 13.6817C19.7122 10.8336 19.1036 8.66705 17.8864 7.18213C16.6693 5.67287 14.9775 4.91824 12.8109 4.91824C10.6444 4.91824 8.95259 5.67287 7.73545 7.18213C6.54264 8.66705 5.94624 10.8336 5.94624 13.6817C5.94624 16.5298 6.55481 18.7085 7.77196 20.2178C8.9891 21.727 10.6688 22.4816 12.8109 22.4816Z" fill="#0C092A"/>
<path d="M43.7791 8.27756C44.6311 8.27756 45.3005 8.50882 45.7874 8.97133C46.2986 9.43385 46.5542 10.0668 46.5542 10.8701V24.2709C46.5542 25.0255 46.2864 25.6341 45.7509 26.0966C45.2397 26.5591 44.5703 26.7903 43.7426 26.7903C42.9636 26.7903 42.3429 26.5713 41.8804 26.1331C41.4178 25.6949 41.1866 25.1107 41.1866 24.3804V24.0153C40.6267 24.9403 39.8842 25.6462 38.9592 26.1331C38.0585 26.6199 37.0361 26.8634 35.892 26.8634C33.6281 26.8634 31.9363 26.2426 30.8165 25.0011C29.7211 23.7353 29.1734 21.8366 29.1734 19.3049V10.8701C29.1734 10.0668 29.4168 9.43385 29.9037 8.97133C30.4149 8.50882 31.0965 8.27756 31.9485 8.27756C32.8005 8.27756 33.4699 8.50882 33.9567 8.97133C34.4436 9.43385 34.687 10.0668 34.687 10.8701V19.4144C34.687 20.4855 34.9061 21.2767 35.3443 21.7879C35.8068 22.2991 36.5006 22.5547 37.4256 22.5547C38.4967 22.5547 39.3609 22.1895 40.0181 21.4592C40.6997 20.729 41.0405 19.7674 41.0405 18.5746V10.8701C41.0405 10.0668 41.284 9.43385 41.7708 8.97133C42.2577 8.50882 42.9271 8.27756 43.7791 8.27756Z" fill="#0C092A"/>
<path d="M65.1717 21.2402C65.6585 21.2402 66.048 21.4349 66.3401 21.8244C66.6566 22.2139 66.8148 22.7129 66.8148 23.3215C66.8148 23.7353 66.6931 24.1248 66.4497 24.4899C66.2063 24.8307 65.8655 25.1229 65.4273 25.3663C64.5996 25.8045 63.6381 26.1696 62.5426 26.4617C61.4472 26.7295 60.437 26.8634 59.512 26.8634C57.5645 26.8634 55.8605 26.4861 54.3999 25.7314C52.9637 24.9768 51.8561 23.9057 51.0771 22.5182C50.2982 21.1063 49.9087 19.451 49.9087 17.5522C49.9087 15.7265 50.286 14.1077 51.0406 12.6958C51.7953 11.2839 52.842 10.1885 54.1809 9.4095C55.5197 8.60619 57.0411 8.20453 58.7452 8.20453C60.3761 8.20453 61.8002 8.56967 63.0173 9.29996C64.2588 10.0059 65.2204 11.0283 65.902 12.3672C66.5836 13.6817 66.9244 15.2275 66.9244 17.0045C66.9244 17.54 66.7905 17.9539 66.5227 18.246C66.2793 18.5138 65.9263 18.6476 65.4638 18.6476H55.2398C55.4102 20.0839 55.8483 21.1306 56.5543 21.7879C57.2602 22.4208 58.2705 22.7372 59.585 22.7372C60.2909 22.7372 60.9238 22.652 61.4837 22.4816C62.0436 22.3112 62.6644 22.08 63.346 21.7879C63.6868 21.6418 64.0154 21.5201 64.3318 21.4227C64.6483 21.301 64.9283 21.2402 65.1717 21.2402ZM58.8912 12.002C57.8445 12.002 57.0046 12.3428 56.3717 13.0244C55.7388 13.6817 55.3615 14.6432 55.2398 15.9091H62.287C62.214 14.6189 61.8854 13.6452 61.3012 12.9879C60.7413 12.3307 59.938 12.002 58.8912 12.002Z" fill="#0C092A"/>
<path d="M84.6413 21.2402C85.1281 21.2402 85.5176 21.4349 85.8097 21.8244C86.1262 22.2139 86.2844 22.7129 86.2844 23.3215C86.2844 23.7353 86.1627 24.1248 85.9193 24.4899C85.6758 24.8307 85.335 25.1229 84.8969 25.3663C84.0692 25.8045 83.1077 26.1696 82.0122 26.4617C80.9168 26.7295 79.9066 26.8634 78.9815 26.8634C77.0341 26.8634 75.3301 26.4861 73.8695 25.7314C72.4333 24.9768 71.3257 23.9057 70.5467 22.5182C69.7677 21.1063 69.3783 19.451 69.3783 17.5522C69.3783 15.7265 69.7556 14.1077 70.5102 12.6958C71.2648 11.2839 72.3116 10.1885 73.6504 9.4095C74.9893 8.60619 76.5107 8.20453 78.2147 8.20453C79.8457 8.20453 81.2698 8.56967 82.4869 9.29996C83.7284 10.0059 84.6899 11.0283 85.3715 12.3672C86.0531 13.6817 86.3939 15.2275 86.3939 17.0045C86.3939 17.54 86.2601 17.9539 85.9923 18.246C85.7489 18.5138 85.3959 18.6476 84.9334 18.6476H74.7094C74.8797 20.0839 75.3179 21.1306 76.0239 21.7879C76.7298 22.4208 77.74 22.7372 79.0546 22.7372C79.7605 22.7372 80.3934 22.652 80.9533 22.4816C81.5132 22.3112 82.1339 22.08 82.8155 21.7879C83.1563 21.6418 83.485 21.5201 83.8014 21.4227C84.1179 21.301 84.3978 21.2402 84.6413 21.2402ZM78.3608 12.002C77.314 12.002 76.4742 12.3428 75.8413 13.0244C75.2084 13.6817 74.8311 14.6432 74.7094 15.9091H81.7566C81.6836 14.6189 81.355 13.6452 80.7707 12.9879C80.2108 12.3307 79.4075 12.002 78.3608 12.002Z" fill="#0C092A"/>
<path d="M102.699 22.4451C104.354 22.4451 105.182 23.1389 105.182 24.5265C105.182 25.8897 104.354 26.5713 102.699 26.5713H90.8681C90.1378 26.5713 89.5414 26.34 89.0789 25.8775C88.6164 25.415 88.3851 24.8673 88.3851 24.2343C88.3851 23.504 88.6407 22.8711 89.1519 22.3356L97.6963 12.7688H90.6855C89.0302 12.7688 88.2025 12.0872 88.2025 10.724C88.2025 9.33648 89.0302 8.6427 90.6855 8.6427H102.078C102.833 8.6427 103.429 8.87396 103.867 9.33648C104.33 9.79899 104.561 10.3589 104.561 11.0161C104.561 11.7464 104.305 12.3793 103.794 12.9149L95.2863 22.4451H102.699Z" fill="#0C092A"/>
<path d="M119.857 9.84768C120.076 9.33648 120.38 8.95916 120.77 8.71573C121.184 8.4723 121.622 8.35059 122.084 8.35059C122.79 8.35059 123.411 8.58185 123.947 9.04436C124.482 9.48253 124.75 10.0181 124.75 10.651C124.75 10.9918 124.665 11.3326 124.494 11.6734L114.672 31.8293C114.429 32.3405 114.1 32.7178 113.686 32.9613C113.272 33.229 112.834 33.3629 112.372 33.3629C111.69 33.3629 111.094 33.1438 110.582 32.7057C110.071 32.2675 109.816 31.732 109.816 31.099C109.816 30.7095 109.901 30.3444 110.071 30.0036L112.481 25.0011L105.982 11.6734C105.836 11.3326 105.763 11.004 105.763 10.6875C105.763 10.0302 106.042 9.47036 106.602 9.00785C107.187 8.54533 107.844 8.31407 108.574 8.31407C109.061 8.31407 109.511 8.44796 109.925 8.71573C110.339 8.95916 110.668 9.33648 110.911 9.84768L115.439 19.7066L119.857 9.84768Z" fill="#0C092A"/>
</svg>
