<svg width="851" height="851" viewBox="0 0 851 851" fill="none" xmlns="http://www.w3.org/2000/svg">
<path opacity="0.3" fill-rule="evenodd" clip-rule="evenodd" d="M425.5 850C659.945 850 850 659.945 850 425.5C850 191.055 659.945 1 425.5 1C191.055 1 1 191.055 1 425.5C1 659.945 191.055 850 425.5 850Z" stroke="#C4D0FB" stroke-width="2"/>
<path fill-rule="evenodd" clip-rule="evenodd" d="M698 300C701.866 300 705 296.866 705 293C705 289.134 701.866 286 698 286C694.134 286 691 289.134 691 293C691 296.866 694.134 300 698 300Z" fill="#C4D0FB"/>
<path fill-rule="evenodd" clip-rule="evenodd" d="M244 54C250.075 54 255 49.0751 255 43C255 36.9249 250.075 32 244 32C237.925 32 233 36.9249 233 43C233 49.0751 237.925 54 244 54Z" fill="#C4D0FB"/>
</svg>
